<svg width="321" height="20" viewBox="0 0 321 20" xmlns="http://www.w3.org/2000/svg"><g fill="#f5c815" fill-rule="evenodd"><path d="M245.632 5.83l.004.084.794-.015a17.482 17.482 0 0 1-.008-.085l-.79.016zm-81.809 8.543l.002.072.679-.014-.01-.072-.671.014zm102.51 3.187l-.002-.062-.794.017.005.062.791-.017zM208.04 6.22l-.017-.127-.77.037.019.142.768-.052zm-14.869 4.98l-.113.092.097.052.98-.019.003-.052c-.328-.025-.657-.05-.967-.072zm4.407-5.133l-.039.079.995-.021.003-.078-.959.02zm13.625.257l-.033-.091-.9-.037-.006.146.94-.018zm46.551 11.313l.017-.202-.712-.015-.018.121.713.096zm-8.436-11.661l.002-.26-.949.07.016.162.931.028zm-53.642-.01l-.001-.076-1.462.028.001.076 1.462-.029zm26.936 5.702l.017.23 1.124-.175-.053-.164-1.088.11zM82.953.927L82.904.74l-1.26.16.04.146 1.27-.12zm133.188 5.37l-.007-.092-1.695.033.01.092 1.692-.033zM112.648 3.494c.006.1.01.201.017.301l1.059-.066-.015-.21-1.06-.025zM54.662 2.465l.07.223 1.071-.095-.037-.19-1.104.062zm176.906 3.723a20.184 20.184 0 0 1-.008-.094l-1.773.035.008.093 1.773-.034zm-51.26-.44l-.021.2 1.35.052.02-.184-1.35-.067zm3.207.093l-.05.112 2.102-.04-.004-.112-2.048.04zM69.717 2.388l-.05-.095-1.977.038.007.096 2.02-.04zM187.21 5.832l-.004.097 1.955.029.007-.164-1.958.038zM44.17 2.59l.072.06L46 2.615l-.002-.063-1.829.039zM233.21 6.067l-.105.153 2.037-.039.003-.151-1.935.037zm20.24 8.934a25.06 25.06 0 0 0-.003-.101l-2.71.052.004.101 2.709-.052zm-1.63-9.086l-.13.114 2.719-.053-.002-.111-2.588.05zm-35.348 5.877l.05-.255-2.356-.073-.016.19 2.322.138zm38.736-5.222l2.01.084-1.524-.666-.486.582zm-82.428 4.568l.008.14c1.128-.02 2.258-.043 3.386-.064l-.012-.141-3.382.065zm33.626.366l.042.227c.668.038 1.348.158 1.964-.266l-2.006.04zm6.307.28l.037-.315-3.006.058v.181l2.97.076zm36.846-5.394c1.499.247 2.973.23 4.433-.086l-4.433.086zM76.223.898l.033.164 3.84-.075a32.65 32.65 0 0 0-.014-.164l-3.859.075zm121.11 10.503c1.349.255 3.037.256 4.032-.078l-4.032.078zm-24.516-5.563l.005.109 5.895-.114-.005-.11-5.895.115zm32.65.478l.01-.174-5.168-.159-.013.2c1.723.045 3.447.09 5.17.133zm16.057-.047l.067.106 6.501-.126-.005-.107-6.563.127zM57.482 2.442l.008.175 6.902-.133-.01-.175-6.9.133zM224.81 15.074c-1.62-.413-4.106-.408-5.336.103l5.336-.103zm-38.725-.611l-.01.324 19.527.226.008-.283c-6.508-.09-13.017-.178-19.525-.267zm11.278-.94l.142-.283c-.328-.083-.649-.22-.987-.24-1.644-.103-3.295-.163-4.94-.26-2.836-.167-5.667-.374-8.505-.514-1.144-.057-2.303.007-3.454.035-.675.016-1.347.088-2.022.099-.405.007-.817-.099-1.217-.078-2.145.114-4.284.284-6.431.37-1.56.061-3.13.002-4.693.039-.675.016-1.344.136-2.016.209 2.15.179 4.275.237 6.4.27 2.215.036 4.432.028 6.647.073 4.028.081 8.054.204 12.083.273 1.042.018 2.09-.156 3.133-.147 1.954.015 3.907.1 5.86.155zm32.084 1.041c.354.47 1 .445 1.662.446 3.51.004 7.021.026 10.532.031.583.001 1.282.071 1.725-.107.89-.358 1.645-.182 2.233.007.621-.2 1.043-.432 1.494-.459.744-.044 1.51.023 2.26.08 1.157.09 2.294.266 3.201-.474.205-.168.79-.135 1.599-.252l-1.304.623c1.52-.029 2.725-.094 3.925-.06.663.02 1.316.207 1.973.319l-.025-.023c.467.577 1.296.445 2.029.409 1.92-.096 3.827-.144 5.739.083 1.09.129 2.089-.028 2.84-.626.04-.031.207.007.339.015l.02.434c2.628.395 17.32.015 19.88-.381-2.922.009-5.845.032-8.762.136-1.43.05-2.62-.114-3.456-.896.622-.061 1.24-.101 1.835-.197.124-.02.275-.271.221-.372-.05-.095-.518-.191-.524-.184-.512.598-1.036.15-1.594.043-.6-.114-1.24-.158-1.868-.185-1.054-.045-2.111-.052-3.167-.075l-.003-.313 6.32-.33c.018-.549-.397-.635-.914-.643-1.695-.028-3.39-.08-5.084-.079-5.643.001-11.286.046-16.928.024-3.621-.014-7.241-.13-10.863-.174-3.157-.04-6.315-.055-9.472-.058-1.975-.001-3.951.026-5.925.066-1.435.03-2.867.103-4.4.16.39.641 1.116.549 1.706.536 3.612-.076 7.218-.026 10.829.068 3.386.088 6.783-.005 10.168.093 1.414.041 2.76.132 4.12-.226.416-.11 1.168-.099 1.44.076.649.417 1.393.324 2.111.35 1.037.035 2.079.01 3.118.008 1.086-.001 2.207.268 3.233-.183 1.247.528 2.625.19 3.94.243 1.716.069 3.44.069 5.475.104-1.118.52-1.867.537-2.887.429-1.927-.205-3.933-.106-5.907-.103-1.049.002-2.098.096-3.147.097-2.203.003-4.407-.023-6.61-.049-.759-.009-1.516-.055-2.273-.082-1.868-.065-3.735-.138-5.603-.192-2.5-.073-4.999-.16-7.5-.183-1.407-.014-2.9-.226-4.145.459-.072.04-.215.023-.352.035l-.248-.435c-.595.012-1.26.13-1.802.01-.775-.172-1.106.271-1.64.325-.44.045-.942-.213-1.428-.314-.493-.102-.172.587-.83.377-.563-.18-1.143-.369-1.573.165-.05.063-.53.075-.645 0-1.104-.71-2.354-.14-3.502-.138-.988.002-1.942.297-3.011.077-.501-.103-1.217.014-1.933.494 5.006.286 9.733.013 14.411.216-.2.458-1.476 0-1.027.772l-.026-.017zm31.886-8.016c.243.383.731.277 1.196.281 3.093.03 6.185.105 9.278.105 2.467 0 4.934-.086 7.4-.134-.87-.018-1.55-.19-1.218-1.144-.756.396-1.197.759-1.762.888-.602.137-1.321.054-2.387.074l1.471-.56c-1.354-.13-2.29-.33-3.46-.082l.882.734c-.81-.115-1.522-.077-1.84-.29-.7-.474-1.39-.603-2.353-.476-.473.062-1.029-.06-1.519-.16-.664-.133-1.09.02-1.612.43l2.442.135-.017.098-3.524.068.134-.6-4.628.09.001.128 3.057.041c-.73.183-1.148.287-1.57.394-.954-.194-1.903-.231-2.847.008.626.094 1.252.145 1.878.137.334-.003.665-.106.998-.165zm-61.06 6.75c.28.117.555.332.84.337 2.239.045 4.48.05 6.72.069 1.506.012 3.015.075 4.516.025 1.025-.034 2.185.3 3.243-.402-.996-.123-1.987-.464-2.635-.281-1.629.459-3.114.314-4.683.007-.656-.129-1.355-.163-2.307-.272-.352.152-.905.463-1.745.035-.515-.263-.979.244-1.456.345-.58.122-1.314-.097-1.984-.117-.171-.006-.356.182-.535.282-1.03-.504-1.03-.504-1.765.037.637.359 1.229.37 1.79-.066zm43.292-7.005l.838-.703c-.872-.309-1.745-.682-2.72-.228-.154.07-.004.422.007.653-.043.006-.161.042-.27.033-1.218-.101-2.678.409-3.558-.607-.048-.056-.525.047-.824.078l.646.87 5.903-.116 1.485.198.024-.257-1.531.08zm-56.482 5.016c-.266-.07-.529-.196-.799-.203a514.066 514.066 0 0 0-6.667-.118c-.297-.004-.596.092-.91.144.073.121.092.184.114.184 2.56.07 5.12.14 7.681.188.2.004.405-.143.61-.22 1.41.547 2.828.025 4.242.153l-.009-.302-4.262.174zm-12.088 3.174c.314.077.625.216.941.22 1.855.03 3.71.03 5.566.03.057 0 .114-.11.324-.329-2.386.108-4.61-.274-6.854.097-1.772-.333-3.541-.155-5.309.084l5.332-.102zm133.495 2.065c-.434.085-.86.21-1.304.25-2.377.216-4.857.21-7.103.683-1.525.322-2.943.216-4.405.295-4.135.223-8.27.5-12.414.587-3.914.08-7.838-.077-11.757-.088-2.96-.008-5.92.065-8.88.071-4.15.008-8.298-.016-12.446-.017-.92 0-1.729-.131-2.2-.612l-5.22.63.65-.66c-.103-.042-.19-.108-.263-.102-.95.08-1.868.414-2.866.135a.922.922 0 0 0-.511.03c-1.42.634-2.998.364-4.539.392-1.448.025-2.893.193-4.287-.208-1.868.635-3.904.253-5.854.382-2.38.158-4.798.09-7.2.1-1.987.008-3.976.002-5.963-.023-5.09-.064-10.18-.143-15.271-.215-4.1-.058-8.2-.137-12.3-.167-8.014-.06-16.029-.11-24.044-.126-5.56-.011-11.12.068-16.68.057-4.97-.01-9.94-.12-14.91-.122-2.907-.001-5.833-.176-8.7.41-.92.187-1.976.128-2.967.116-4.212-.05-8.424-.124-12.635-.19-2.213-.035-4.426-.073-6.638-.11-.235-.004-.488.023-.7-.024-2.384-.535-4.7-.112-7.026.195-.222.03-.473.083-.673.043-2.823-.561-5.688-.107-8.53-.16-.933-.018-1.87.021-2.803.06-.627.025-1.25.093-1.874.149-.172.016-.35.1-.505.082-2.313-.272-4.616.084-6.928.033-2.34-.052-4.685-.034-7.028-.029-2.694.007-5.388.042-8.082.05-3.575.008-7.15-.026-10.724.012-2.34.024-4.678.143-7.018.219-.232.007-.494.058-.694.007-1.677-.425-3.357-.043-5.034-.031-1.872.012-3.745.016-5.618.029-4.162.028-8.324.034-12.484.102-1.447.024-2.848.334-4.35.126-2.236-.31-3.802-1.06-4.463-2.509-.263-.576-.226-1.218-.558-1.77-.365-.61-.996-1.15-1.606-1.826l.741-.636c-.027-.13.001-.238-.064-.276-1-.572-.578-1.407-.845-2.105s.021-1.48-.1-2.212C.754 7.184.338 6.818 0 6.325l4.236-2.5.274-1.508c1.669-.475 3.225-.94 4.813-1.35.31-.08.991-.03 1.08.092.428.59 1.161.435 1.815.383 3.076-.249 6.138-.594 9.223-.766 2.386-.134 4.799-.053 7.2-.089C29.748.571 30.855.47 31.963.466c2.46-.007 4.92.044 7.38.037 3.685-.011 7.37-.057 11.054-.08C53.44.406 56.483.402 59.526.389 64.619.364 69.712.333 74.806.315c3.51-.013 7.022-.016 10.533-.012.606 0 1.211.058 1.817.088l-.012.263-2.76.2c1.498.16 2.867.308 4.24.447.228.024.518.06.692-.007 1.51-.58 2.937-.032 4.48.24-.317.08-.63.22-.95.229-2.049.05-4.1.063-6.149.1-3.679.068-7.357.145-11.036.218l-4.116.08.009.221 4.347.061c-3.62.505-7.298.349-10.948.464-3.682.116-7.37.152-11.083.316.767.032 1.536.1 2.303.09 8.383-.104 16.766-.247 25.15-.32 3.984-.036 7.97.053 12.085.087.15.704.979.73 1.92.682.987-.05 1.98-.045 2.976-.145l-1.44-.08c2.846-.313 5.678-.548 8.532-.225.114.013.234.052.341.04 1.214-.128 2.353.004 3.56.184 1 .148 2.066.289 3.317-.12 1.212-.395 2.964-.294 4.927.083l-1.061.308c5.643.015 11.032.04 16.421.043 6.98.004 13.961-.03 20.941-.003 3.098.012 6.194.152 9.292.203 1.872.031 3.746-.001 5.62 0 3.221.004 6.444.002 9.665.024 1.459.01 2.917.113 4.374.108 4.567-.016 9.156-.264 13.696-.051 7.488.35 14.967.278 22.454.262 2.574-.005 5.148.035 7.723.05 5.968.035 11.939.03 17.906.118 2.623.038 5.237.291 7.86.388 1.224.045 2.46-.084 3.689-.074 1.519.011 3.037.085 4.555.13 3.034.091 6.068.238 9.103.257 3.978.024 7.958-.097 11.936-.075 4.684.024 9.366.14 14.05.202 1.037.014 2.076-.035 3.115-.055.01.077.02.153.032.23l-1.396.176.014.194c1.37-.026 2.738-.048 4.107-.08 1.346-.032 2.698-.032 4.036-.121 2.499-.167 3.254-.17 4.21.218l-2.343.26-.05.162c.56.06 1.12.17 1.68.17.546-.002 1.092-.117 1.664-.064-3.326.792-6.914.395-10.28 1.1.535-.03 1.069-.077 1.604-.085.73-.01 1.484-.195 2.144.257.199.136.768.055 1.167.049 1.959-.033 3.918-.073 5.877-.111l.023.23-1.875.168-.063.146c.482.048.961.115 1.446.139.915.044 1.834.098 2.75.086 1.518-.02 3.035-.106 4.553-.13a3.748 3.748 0 0 1 1.68.346c-1.163.18-2.315.436-3.495.515-1.04.07-1.925.237-2.74.805.848.437 1.786.148 2.636.176.928.03 1.862-.025 2.808.093l-11.82.829-.01.198c.57-.004 1.138-.015 1.707-.01.56.006 1.118.029 1.711.25-1.52.148-3.037.323-4.563.44-4.646.354-9.299.674-13.944 1.033-1.248.097-2.48.288-3.718.435l-.05.249c.237.11.464.306.711.318 1.107.053 2.22.055 3.33.073.539.009 1.068-.15 1.412.392.136.214 1.148.255 1.763.26 1.994.014 3.988-.025 5.983-.045 3.455-.034 6.91-.07 10.364-.1.145 0 .292.072.437.295-1.316.026-2.635.018-3.946.083-3.965.197-7.934.107-11.902.123-1.546.007-3.089.25-4.633.386l.032.26c1.889-.014 3.778-.042 5.667-.037.993.003 1.987.058 2.98.097 1.857.072 3.72.105 5.565.246.815.063 1.59.348 2.382.533l-.036-.023z"/><path d="M105.67 1.31l19.093.079c-6.366.48-12.734.282-19.1.39l.007-.468M310.686 1.995c-3.25.439-6.507.768-9.808.19l9.808-.19M320.944 7.177l-2.506.132-.037-.816c.37-.007.764-.056 1.125-.005.192.028.292.282.495.339.274.076.608.062.916.087l.007.263M298.296 2.476c-1.168-.046-2.105.657-3.418.441.859-.649 1.598-.747 3.418-.441M82.187 2.46l4.296-.082.007.127-4.243.082-.06-.126M309.059 17.196c.799.095 1.598.19 2.397.287l-.043.231-2.438-.148.084-.37M104.414 1.827l-1.382-.134c.175-.168.274-.328.348-.323.405.025.804.092 1.204.144l-.17.313M124.157 0c.583.259.697.513.259.776-.1.06-.47.04-.576-.033-.448-.303-.161-.525.317-.743M308.527 16.57c.466-.416.466-.416 1.451-.25l-1.486.228.035.023M78.255 2.69l-1.1-.074.044-.196 1.038.135.018.135M90.459 2.44l-1.308.029-.003-.064 1.263-.026.048.062M11.098 19.868l-1.02.06-.052-.267 1.043-.122.029.33M292.368 2.792l-.93.056-.019-.164.938-.018.011.126M109.406.378l.707.011-.005.125L109.4.5l.005-.122M95.857 1.706l-.712-.075.035-.178.732.045-.055.208M156.749 1.627l-.635.035-.024-.09.588-.067.07.122M91.348.325l.38.175c-.082.033-.165.092-.247.092-.1 0-.2-.05-.299-.079l.166-.188M229.474 14.58c.508-.077 1.012-.17 1.525-.227.447-.05.923.022 1.057-.43.033-.11.668-.144 1.027-.214l.185.564 2.244-.043c-.612.502-.622.527-2.943.523-1.04-.001-2.079-.12-3.12-.188l.025.016M258.748 14.718c.642-.456 1.311-.198 2.271-.094-.955.46-1.623.331-2.295.072l.024.022M239.503 14.444c-.26.084-.384.148-.519.16-.092.01-.2-.051-.3-.08.084-.077.153-.203.258-.218.123-.017.277.062.56.138M248.423 14.092l-.298-.073c.06-.051.127-.148.18-.145.131.008.256.062.384.097l-.266.12"/></g></svg>
