<svg xmlns="http://www.w3.org/2000/svg" width="57" height="20" viewBox="0 0 57 20">
    <g fill="none" fill-rule="nonzero">
        <g fill="#272560">
            <path d="M27.843 16.338a1.28 1.28 0 0 1-.96-.38 1.306 1.306 0 0 1-.362-.943c-.004-.35.086-.696.26-1.003.153-.275.34-.531.557-.763l5.377-5.873h-4.687c-.454 0-.78-.15-.958-.45-.173-.3-.26-.64-.25-.983a1.498 1.498 0 0 1 .282-.93.991.991 0 0 1 .838-.39h8.282c.35-.015.691.109.945.343.234.226.354.55.354.958.01.318-.06.634-.2.921-.137.25-.307.482-.507.688l-5.6 6.05h5.306c.32-.007.623.133.818.377.208.273.313.607.297.945.015.353-.072.703-.252 1.01-.182.28-.504.424-.956.424l-8.584-.001zM40.852 16.492c-1.474 0-1.78-.73-1.78-1.344V6.202c0-.468.145-.846.434-1.125.29-.278.75-.42 1.372-.42.523 0 .937.115 1.232.343.295.228.459.596.459 1.069V15.1c0 .491-.16.853-.477 1.075-.316.223-.722.316-1.24.316zm0-12.795c-.574 0-1.045-.163-1.401-.483-.356-.32-.542-.762-.542-1.305a1.69 1.69 0 0 1 .54-1.282c.352-.335.825-.505 1.403-.505.477 0 .94.152 1.32.43.413.294.624.752.624 1.36 0 .544-.183.984-.542 1.307-.36.324-.83.481-1.402.481v-.003zM46.411 19.92c-1.378 0-1.67-.742-1.67-1.366V5.899c-.011-.396.146-.78.437-1.06.288-.279.75-.42 1.371-.42.387-.005.768.081 1.113.249.367.181.557.537.557 1.048a4.145 4.145 0 0 1 1.019-.854 4.342 4.342 0 0 1 2.3-.619 5.15 5.15 0 0 1 2.253.471 4.567 4.567 0 0 1 1.636 1.308c.45.591.779 1.26.968 1.972.217.803.323 1.63.316 2.46a8.26 8.26 0 0 1-.363 2.5 5.81 5.81 0 0 1-1.062 1.983 4.876 4.876 0 0 1-1.72 1.306 5.514 5.514 0 0 1-2.32.47 4.91 4.91 0 0 1-1.581-.215 4.427 4.427 0 0 1-1.036-.496 2.842 2.842 0 0 1-.48-.394v2.881c0 .501-.14.871-.42 1.1-.28.227-.709.332-1.318.332zm4.237-12.81a2.275 2.275 0 0 0-1.09.248 2.349 2.349 0 0 0-.79.702c-.23.327-.398.692-.496 1.076a5.291 5.291 0 0 0-.168 1.364c0 1.047.223 1.887.668 2.497.445.61 1.05.894 1.88.894.83 0 1.435-.305 1.855-.934.42-.629.643-1.467.643-2.457a5.293 5.293 0 0 0-.174-1.36 3.43 3.43 0 0 0-.485-1.075 2.244 2.244 0 0 0-.779-.7 2.223 2.223 0 0 0-1.064-.255z"/>
        </g>
        <g>
            <path fill="#F15B41" d="M20.313 7.45l-4.589 3.987H4.36a4.43 4.43 0 0 0-2.878 1.049l5.731-4.982.088-.075 7.18-6.246a4.475 4.475 0 0 1 4.265-.874c1.481.466 2.593 1.66 2.916 3.13.323 1.473-.192 2.999-1.35 4.005v.005z"/>
            <ellipse cx="4.36" cy="4.319" fill="#F99D1D" rx="4.36" ry="4.212"/>
            <path fill="#272560" d="M4.36 11.437a4.43 4.43 0 0 0-2.878 1.049l-.037.032c-1.79 1.556-1.936 4.218-.326 5.948 1.61 1.729 4.366 1.87 6.156.315l8.45-7.343-11.365-.001z"/>
            <path fill="#00B6BD" d="M15.718 11.44l-8.45 7.343a4.43 4.43 0 0 1-2.916 1.075H17.39c2.515-.039 4.29-1.866 4.29-4.211s-1.91-4.175-4.29-4.212l-1.672.005z"/>
        </g>
    </g>
</svg>
